<svg width="1600" height="1200" xmlns="http://www.w3.org/2000/svg">

  <!-- Top Banner -->
  <rect x="0" y="0" width="1600" height="120" fill="#0A2A66"/>
  <text x="800" y="75" font-family="Inter" font-size="40" fill="#FFFFFF" text-anchor="middle">CONTINUITY LAYER</text>

  <!-- Left Column Header -->
  <rect x="50" y="140" width="450" height="60" fill="#0A2A66"/>
  <text x="275" y="180" font-family="Inter" font-size="22" fill="#FFFFFF" text-anchor="middle">GOVERNED VALIDATION FRAMEWORK</text>

  <!-- Left Column Tier 1 -->
  <rect x="50" y="220" width="450" height="70" fill="#1E4FA8"/>
  <text x="275" y="265" font-family="Inter" font-size="20" fill="#FFFFFF" text-anchor="middle">Retention Eligibility Gate</text>

  <rect x="50" y="300" width="450" height="70" fill="#1E4FA8"/>
  <text x="275" y="345" font-family="Inter" font-size="20" fill="#FFFFFF" text-anchor="middle">Advisory Guardrail Gate</text>

  <rect x="50" y="380" width="450" height="70" fill="#1E4FA8"/>
  <text x="275" y="425" font-family="Inter" font-size="20" fill="#FFFFFF" text-anchor="middle">Interpretation Heuristic Gate</text>

  <!-- Left Column Tier 2 -->
  <rect x="50" y="480" width="450" height="70" fill="#1E4FA8"/>
  <text x="275" y="525" font-family="Inter" font-size="20" fill="#FFFFFF" text-anchor="middle">Transformation Integrity Gate</text>

  <rect x="50" y="560" width="450" height="70" fill="#1E4FA8"/>
  <text x="275" y="605" font-family="Inter" font-size="20" fill="#FFFFFF" text-anchor="middle">Deletion & Supervisory Gate</text>

  <!-- Center Column Header -->
  <rect x="550" y="140" width="350" height="60" fill="#0A2A66"/>
  <text x="725" y="180" font-family="Inter" font-size="22" fill="#FFFFFF" text-anchor="middle">CONTINUITY FLOW</text>

  <!-- Center Flow -->
  <rect x="550" y="220" width="350" height="90" fill="#1E4FA8"/>
  <text x="725" y="275" font-family="Inter" font-size="22" fill="#FFFFFF" text-anchor="middle">State Capture</text>

  <rect x="550" y="330" width="350" height="90" fill="#1E4FA8"/>
  <text x="725" y="385" font-family="Inter" font-size="22" fill="#FFFFFF" text-anchor="middle">State Validation</text>

  <rect x="550" y="440" width="350" height="90" fill="#1E4FA8"/>
  <text x="725" y="495" font-family="Inter" font-size="22" fill="#FFFFFF" text-anchor="middle">State Reuse</text>

  <!-- Vertical Red Boundary Bar -->
  <rect x="930" y="140" width="40" height="600" fill="#C00000"/>
  <text x="950" y="440" font-family="Inter" font-size="26" fill="#FFFFFF" text-anchor="middle" transform="rotate(90 950 440)">BOUNDARY</text>

  <!-- Right Column Header -->
  <rect x="1000" y="140" width="550" height="60" fill="#0A2A66"/>
  <text x="1275" y="180" font-family="Inter" font-size="22" fill="#FFFFFF" text-anchor="middle">SUPERVISORY CONTROLS & AUDIT TELEMETRY</text>

  <!-- Right Column Boxes -->
  <rect x="1000" y="220" width="550" height="90" fill="#1E4FA8"/>
  <text x="1275" y="275" font-family="Inter" font-size="22" fill="#FFFFFF" text-anchor="middle">Supervisory Control Layer</text>

  <rect x="1000" y="330" width="550" height="90" fill="#1E4FA8"/>
  <text x="1275" y="385" font-family="Inter" font-size="22" fill="#FFFFFF" text-anchor="middle">Guardrail Activation Telemetry</text>

  <rect x="1000" y="440" width="550" height="90" fill="#1E4FA8"/>
  <text x="1275" y="495" font-family="Inter" font-size="22" fill="#FFFFFF" text-anchor="middle">Classification Reporting</text>

  <rect x="1000" y="550" width="550" height="90" fill="#1E4FA8"/>
  <text x="1275" y="605" font-family="Inter" font-size="22" fill="#FFFFFF" text-anchor="middle">Failure-Mode Detection</text>

  <!-- Bottom Bar -->
  <rect x="0" y="760" width="1600" height="100" fill="#C00000"/>
  <text x="800" y="825" font-family="Inter" font-size="28" fill="#FFFFFF" text-anchor="middle">CONTINUITY PRESERVED UNDER SUPERVISED CONSTRAINTS</text>

</svg>
